<?xml version="1.0" encoding="UTF-8" standalone="no"?>
<svg
   xmlns:dc="http://purl.org/dc/elements/1.1/"
   xmlns:cc="http://creativecommons.org/ns#"
   xmlns:rdf="http://www.w3.org/1999/02/22-rdf-syntax-ns#"
   xmlns:svg="http://www.w3.org/2000/svg"
   xmlns="http://www.w3.org/2000/svg"
   xmlns:sodipodi="http://sodipodi.sourceforge.net/DTD/sodipodi-0.dtd"
   xmlns:inkscape="http://www.inkscape.org/namespaces/inkscape"
   aria-hidden="true"
   focusable="false"
   data-prefix="far"
   data-icon="trash-alt"
   class="svg-inline--fa fa-trash-alt fa-w-14"
   role="img"
   viewBox="0 0 448 512"
   version="1.1"
   id="svg4"
   sodipodi:docname="kanta.svg"
   inkscape:version="1.0.1 (3bc2e813f5, 2020-09-07)">
  <metadata
     id="metadata10">
    <rdf:RDF>
      <cc:Work
         rdf:about="">
        <dc:format>image/svg+xml</dc:format>
        <dc:type
           rdf:resource="http://purl.org/dc/dcmitype/StillImage" />
      </cc:Work>
    </rdf:RDF>
  </metadata>
  <defs
     id="defs8" />
  <sodipodi:namedview
     pagecolor="#ffffff"
     bordercolor="#666666"
     borderopacity="1"
     objecttolerance="10"
     gridtolerance="10"
     guidetolerance="10"
     inkscape:pageopacity="0"
     inkscape:pageshadow="2"
     inkscape:window-width="1920"
     inkscape:window-height="1001"
     id="namedview6"
     showgrid="false"
     inkscape:zoom="1.6210938"
     inkscape:cx="224"
     inkscape:cy="254.76627"
     inkscape:window-x="-9"
     inkscape:window-y="-9"
     inkscape:window-maximized="1"
     inkscape:current-layer="svg4" />
  <path
     fill="currentColor"
     d="M268 416h24a12 12 0 0 0 12-12V188a12 12 0 0 0-12-12h-24a12 12 0 0 0-12 12v216a12 12 0 0 0 12 12zM432 80h-82.41l-34-56.7A48 48 0 0 0 274.41 0H173.59a48 48 0 0 0-41.16 23.3L98.41 80H16A16 16 0 0 0 0 96v16a16 16 0 0 0 16 16h16v336a48 48 0 0 0 48 48h288a48 48 0 0 0 48-48V128h16a16 16 0 0 0 16-16V96a16 16 0 0 0-16-16zM171.84 50.91A6 6 0 0 1 177 48h94a6 6 0 0 1 5.15 2.91L293.61 80H154.39zM368 464H80V128h288zm-212-48h24a12 12 0 0 0 12-12V188a12 12 0 0 0-12-12h-24a12 12 0 0 0-12 12v216a12 12 0 0 0 12 12z"
     id="path2" />
  <path
     style="fill:#ff0000;stroke-width:0.616867"
     d="M 75.323497,511.38947 C 64.460436,510.32927 54.891835,505.76578 46.898072,497.83273 38.877433,489.873 34.343034,481.01509 32.790097,470.27292 32.398095,467.56131 32.17427,405.32795 32.166436,296.86747 l -0.01222,-169.1759 h -9.143124 c -10.431835,0 -13.3184722,-0.67437 -17.2343956,-4.02625 -1.3549402,-1.15978 -3.1222439,-3.43484 -3.9273415,-5.05568 -1.38574169,-2.78981 -1.46381373,-3.5721 -1.46381373,-14.66747 0,-10.899235 0.0951871,-11.898413 1.35846673,-14.2598 2.0827156,-3.893118 4.0898431,-5.977631 7.3677812,-7.651852 L 12.106024,80.501205 55.41757,80.330962 98.729114,80.160719 116.59448,50.412889 c 9.82596,-16.361306 19.12533,-31.215616 20.66526,-33.009578 8.4973,-9.8989899 19.30245,-15.5223207 32.24441,-16.78097839 7.9059,-0.76888115 101.0858,-0.76888115 108.9917,0 12.8564,1.25033689 24.38976,7.23093499 32.276,16.73664839 1.50856,1.818344 10.7923,16.699814 20.63055,33.069935 l 17.88772,29.763855 h 42.11045 c 46.10542,0 45.9904,-0.0083 50.37439,3.618372 1.19887,0.991769 3.00321,3.289859 4.00963,5.106879 l 1.82987,3.303665 v 11.720483 c 0,11.09537 -0.0781,11.87766 -1.46382,14.66747 -0.80509,1.62084 -2.5724,3.8959 -3.92734,5.05568 -3.91592,3.35188 -6.80256,4.02625 -17.23439,4.02625 h -9.14313 l -0.0122,169.1759 c -0.008,108.46048 -0.23166,170.69384 -0.62366,173.40545 -1.55294,10.74217 -6.08733,19.60008 -14.10797,27.55981 -6.03496,5.98912 -12.84849,9.95228 -21.34966,12.41823 l -4.92818,1.42953 -147.43132,0.0808 c -81.08723,0.0444 -149.518407,-0.12288 -152.069277,-0.37184 z M 368.34699,296.09639 V 127.69157 H 224 79.653012 V 296.09639 464.5012 H 224 368.34699 Z M 293.70602,79.834599 c 0,-0.196996 -4.08803,-7.177234 -9.08452,-15.511638 -7.65851,-12.774781 -9.39836,-15.284592 -11.0838,-15.988815 -2.95129,-1.233129 -96.12411,-1.233129 -99.0754,0 -1.68544,0.704223 -3.42529,3.214034 -11.0838,15.988815 -4.99649,8.334404 -9.08452,15.314642 -9.08452,15.511638 0,0.196997 31.36771,0.358172 69.70602,0.358172 38.33831,0 69.70602,-0.161175 69.70602,-0.358172 z"
     id="path835" />
  <path
     style="fill:#ff0000;stroke-width:0.616867"
     d="m 151.83091,414.80231 c -2.81267,-1.241 -4.78331,-3.12177 -6.23311,-5.94882 -1.14081,-2.22455 -1.1737,-5.38676 -1.1737,-112.8462 0,-109.93357 0.007,-110.57217 1.25542,-113.1509 0.71327,-1.4734 2.35472,-3.3557 3.80093,-4.35861 l 2.5455,-1.76525 15.00956,-0.18484 c 13.72811,-0.16906 15.23943,-0.0832 17.70212,1.00621 3.25143,1.43826 5.62061,4.38001 6.54216,8.12321 0.49033,1.99164 0.63415,33.63728 0.50904,112.00991 l -0.17437,109.23402 -1.8506,2.98001 c -3.24608,5.22714 -4.39461,5.53505 -21.28193,5.70556 -11.94651,0.12062 -14.87538,-0.0208 -16.65102,-0.8043 z"
     id="path837" />
  <path
     style="fill:#ff0000;stroke-width:0.616867"
     d="m 264.40482,414.95066 c -3.45721,-1.35283 -4.58537,-2.28488 -6.30354,-5.20779 l -1.71574,-2.91877 -0.17437,-109.18555 c -0.12511,-78.33718 0.0187,-109.96982 0.50904,-111.96144 0.9047,-3.67479 3.26121,-6.65691 6.37926,-8.07287 2.24536,-1.01966 4.21136,-1.15462 16.99493,-1.1666 16.58323,-0.0155 18.15835,0.35562 21.40782,5.0445 l 1.76525,2.5472 0.15919,111.25798 c 0.15522,108.47929 0.12976,111.31539 -1.01948,113.55642 -1.48877,2.90311 -3.46553,4.75391 -6.37651,5.97019 -1.84365,0.77033 -4.94001,0.94568 -16.03013,0.90781 -8.95035,-0.0305 -14.39067,-0.29954 -15.59572,-0.77108 z"
     id="path839" />
</svg>
